<svg xmlns="http://www.w3.org/2000/svg" xmlns:xlink="http://www.w3.org/1999/xlink" xmlns:lucid="lucid" width="1506.97" height="1169"><g transform="translate(0 -101)" lucid:page-tab-id="0_0"><path d="M261 281h220v80H261z" stroke="#000" stroke-width="2" fill="#fff"/><use xlink:href="#a" transform="matrix(1,0,0,1,266,286) translate(45.39876302083332 29.363064236111114)"/><use xlink:href="#b" transform="matrix(1,0,0,1,266,286) translate(30.109049479166657 54.81011284722223)"/><use xlink:href="#c" transform="matrix(1,0,0,1,266,286) translate(140.90874565972223 54.81011284722223)"/><path d="M282.33 121H481l-21.33 80H261z" stroke="#000" stroke-width="2" fill="#fff"/><use xlink:href="#d" transform="matrix(1,0,0,1,266,126) translate(18.40506510416666 42.488064236111114)"/><use xlink:href="#e" transform="matrix(1,0,0,1,266,126) translate(109.94043836805557 42.488064236111114)"/><path d="M442.5 696.14c0 7.72-32.46 13.98-72.5 13.98s-72.5-6.26-72.5-13.98V584.36c0-7.72 32.46-13.98 72.5-13.98s72.5 6.26 72.5 13.98z" stroke="#000" stroke-width="2" fill="#fff"/><path d="M442.5 584.36c0 7.7-32.46 13.97-72.5 13.97s-72.5-6.26-72.5-13.97" stroke="#000" stroke-width="2" fill="none"/><use xlink:href="#f" transform="matrix(1,0,0,1,302.5,603.3295733017924) translate(14.111328125 20.613064236111114)"/><use xlink:href="#g" transform="matrix(1,0,0,1,302.5,603.3295733017924) translate(41.37261284722222 46.06011284722223)"/><use xlink:href="#h" transform="matrix(1,0,0,1,302.5,603.3295733017924) translate(12.314995659722221 71.50716145833334)"/><use xlink:href="#i" transform="matrix(1,0,0,1,302.5,603.3295733017924) translate(30.301223958333324 96.95421006944446)"/><path d="M259 343.08h-39v-38.8h21.5" stroke="#000" stroke-width="2" fill="none"/><path d="M260 344.08h-1.03v-2H260z"/><path d="M256.76 304.27l-14.26 4.64v-9.27z" stroke="#000" stroke-width="2"/><use xlink:href="#j" transform="matrix(1,0,0,1,131.3858506944444,310.9532962560818) translate(0 20.613064236111114)"/><path d="M371 203v58.5" stroke="#000" stroke-width="2" fill="none"/><path d="M372 203.03h-2V202h2z"/><path d="M371 276.76l-4.64-14.26h9.28z" stroke="#000" stroke-width="2"/><path d="M608 201h160l-32 120h-96z" stroke="#000" stroke-width="2" fill="#fff"/><use xlink:href="#k" transform="matrix(1,0,0,1,613,206) translate(20.45259114583333 51.550564236111114)"/><use xlink:href="#l" transform="matrix(1,0,0,1,613,206) translate(78.44846788194445 51.550564236111114)"/><use xlink:href="#m" transform="matrix(1,0,0,1,613,206) translate(43.422968749999995 76.99761284722223)"/><path d="M568 480h240v140H568z" stroke="#000" stroke-width="2" fill="#fff"/><use xlink:href="#n" transform="matrix(1,0,0,1,573,485) translate(6.682942708333314 32.800564236111114)"/><use xlink:href="#o" transform="matrix(1,0,0,1,573,485) translate(131.94878472222223 32.800564236111114)"/><use xlink:href="#p" transform="matrix(1,0,0,1,573,485) translate(28.54329427083333 58.24761284722223)"/><use xlink:href="#q" transform="matrix(1,0,0,1,573,485) translate(127.24012586805556 58.24761284722223)"/><use xlink:href="#r" transform="matrix(1,0,0,1,573,485) translate(1.2760416666666572 83.69466145833334)"/><use xlink:href="#s" transform="matrix(1,0,0,1,573,485) translate(139.24153645833334 83.69466145833334)"/><use xlink:href="#t" transform="matrix(1,0,0,1,573,485) translate(164.27083333333334 83.69466145833334)"/><use xlink:href="#u" transform="matrix(1,0,0,1,573,485) translate(48.225368923611114 109.14171006944446)"/><use xlink:href="#v" transform="matrix(1,0,0,1,573,485) translate(115.98470052083334 109.14171006944446)"/><path d="M1226.97 510h160v120h-160z" stroke="#000" stroke-width="2" fill="#fff"/><use xlink:href="#w" transform="matrix(1,0,0,1,1231.9650550202493,515) translate(11.82996961805555 61.863064236111114)"/><use xlink:href="#x" transform="matrix(1,0,0,1,1231.9650550202493,515) translate(102.99533420138889 61.863064236111114)"/><path d="M1224.97 570H1180V261H771.54" stroke="#000" stroke-width="2" fill="none"/><path d="M1225.97 571h-1.03v-2h1.03z"/><path d="M756.27 261l14.27-4.64v9.28z" stroke="#000" stroke-width="2"/><path d="M688 622v115.74" stroke="#000" stroke-width="2" fill="none"/><path d="M689 622.03h-2V621h2z"/><path d="M688 753l-4.64-14.26h9.28z" stroke="#000" stroke-width="2"/><path d="M608 757.24h160v65.52H608z" stroke="#000" stroke-width="2" fill="#fff"/><use xlink:href="#y" transform="matrix(1,0,0,1,613,762.2395833333334) translate(22.428927951388886 20.613064236111114)"/><use xlink:href="#z" transform="matrix(1,0,0,1,613,762.2395833333334) translate(45.685763888888886 46.06011284722223)"/><path d="M770 790h410V608h27.46" stroke="#000" stroke-width="2" fill="none"/><path d="M770.03 791H769v-2h1.03z"/><path d="M1222.73 608l-14.27 4.64v-9.28z" stroke="#000" stroke-width="2"/><path d="M490 1180h160v70H490z" stroke="#000" stroke-width="2" fill="#fff"/><use xlink:href="#A" transform="matrix(1,0,0,1,495,1185) translate(28.93988715277777 39.363064236111114)"/><use xlink:href="#B" transform="matrix(1,0,0,1,495,1185) translate(81.767578125 39.363064236111114)"/><path d="M220 879h300v60H220z" stroke="#000" stroke-width="2" fill="#fff"/><use xlink:href="#C" transform="matrix(1,0,0,1,224.99999999999997,883.9994151261981) translate(128.12152777777777 33.113064236111114)"/><path d="M220 760h300v60H220z" fill="#fff"/><path d="M221 760c0 .55-.45 1-1 1s-1-.45-1-1 .45-1 1-1 1 .45 1 1zm4 0c0 .55-.45 1-1 1s-1-.45-1-1 .45-1 1-1 1 .45 1 1zm4 0c0 .55-.45 1-1 1s-1-.45-1-1 .45-1 1-1 1 .45 1 1zm4 0c0 .55-.45 1-1 1s-1-.45-1-1 .45-1 1-1 1 .45 1 1zm4 0c0 .55-.45 1-1 1s-1-.45-1-1 .45-1 1-1 1 .45 1 1zm4 0c0 .55-.45 1-1 1s-1-.45-1-1 .45-1 1-1 1 .45 1 1zm4 0c0 .55-.45 1-1 1s-1-.45-1-1 .45-1 1-1 1 .45 1 1zm4 0c0 .55-.45 1-1 1s-1-.45-1-1 .45-1 1-1 1 .45 1 1zm4 0c0 .55-.45 1-1 1s-1-.45-1-1 .45-1 1-1 1 .45 1 1zm4 0c0 .55-.45 1-1 1s-1-.45-1-1 .45-1 1-1 1 .45 1 1zm4 0c0 .55-.45 1-1 1s-1-.45-1-1 .45-1 1-1 1 .45 1 1zm4 0c0 .55-.45 1-1 1s-1-.45-1-1 .45-1 1-1 1 .45 1 1zm4 0c0 .55-.45 1-1 1s-1-.45-1-1 .45-1 1-1 1 .45 1 1zm4 0c0 .55-.45 1-1 1s-1-.45-1-1 .45-1 1-1 1 .45 1 1zm4 0c0 .55-.45 1-1 1s-1-.45-1-1 .45-1 1-1 1 .45 1 1zm4 0c0 .55-.45 1-1 1s-1-.45-1-1 .45-1 1-1 1 .45 1 1zm4 0c0 .55-.45 1-1 1s-1-.45-1-1 .45-1 1-1 1 .45 1 1zm4 0c0 .55-.45 1-1 1s-1-.45-1-1 .45-1 1-1 1 .45 1 1zm4 0c0 .55-.45 1-1 1s-1-.45-1-1 .45-1 1-1 1 .45 1 1zm4 0c0 .55-.45 1-1 1s-1-.45-1-1 .45-1 1-1 1 .45 1 1zm4 0c0 .55-.45 1-1 1s-1-.45-1-1 .45-1 1-1 1 .45 1 1zm4 0c0 .55-.45 1-1 1s-1-.45-1-1 .45-1 1-1 1 .45 1 1zm4 0c0 .55-.45 1-1 1s-1-.45-1-1 .45-1 1-1 1 .45 1 1zm4 0c0 .55-.45 1-1 1s-1-.45-1-1 .45-1 1-1 1 .45 1 1zm4 0c0 .55-.45 1-1 1s-1-.45-1-1 .45-1 1-1 1 .45 1 1zm4 0c0 .55-.45 1-1 1s-1-.45-1-1 .45-1 1-1 1 .45 1 1zm4 0c0 .55-.45 1-1 1s-1-.45-1-1 .45-1 1-1 1 .45 1 1zm4 0c0 .55-.45 1-1 1s-1-.45-1-1 .45-1 1-1 1 .45 1 1zm4 0c0 .55-.45 1-1 1s-1-.45-1-1 .45-1 1-1 1 .45 1 1zm4 0c0 .55-.45 1-1 1s-1-.45-1-1 .45-1 1-1 1 .45 1 1zm4 0c0 .55-.45 1-1 1s-1-.45-1-1 .45-1 1-1 1 .45 1 1zm4 0c0 .55-.45 1-1 1s-1-.45-1-1 .45-1 1-1 1 .45 1 1zm4 0c0 .55-.45 1-1 1s-1-.45-1-1 .45-1 1-1 1 .45 1 1zm4 0c0 .55-.45 1-1 1s-1-.45-1-1 .45-1 1-1 1 .45 1 1zm4 0c0 .55-.45 1-1 1s-1-.45-1-1 .45-1 1-1 1 .45 1 1zm4 0c0 .55-.45 1-1 1s-1-.45-1-1 .45-1 1-1 1 .45 1 1zm4 0c0 .55-.45 1-1 1s-1-.45-1-1 .45-1 1-1 1 .45 1 1zm4 0c0 .55-.45 1-1 1s-1-.45-1-1 .45-1 1-1 1 .45 1 1zm4 0c0 .55-.45 1-1 1s-1-.45-1-1 .45-1 1-1 1 .45 1 1zm4 0c0 .55-.45 1-1 1s-1-.45-1-1 .45-1 1-1 1 .45 1 1zm4 0c0 .55-.45 1-1 1s-1-.45-1-1 .45-1 1-1 1 .45 1 1zm4 0c0 .55-.45 1-1 1s-1-.45-1-1 .45-1 1-1 1 .45 1 1zm4 0c0 .55-.45 1-1 1s-1-.45-1-1 .45-1 1-1 1 .45 1 1zm4 0c0 .55-.45 1-1 1s-1-.45-1-1 .45-1 1-1 1 .45 1 1zm4 0c0 .55-.45 1-1 1s-1-.45-1-1 .45-1 1-1 1 .45 1 1zm4 0c0 .55-.45 1-1 1s-1-.45-1-1 .45-1 1-1 1 .45 1 1zm4 0c0 .55-.45 1-1 1s-1-.45-1-1 .45-1 1-1 1 .45 1 1zm4 0c0 .55-.45 1-1 1s-1-.45-1-1 .45-1 1-1 1 .45 1 1zm4 0c0 .55-.45 1-1 1s-1-.45-1-1 .45-1 1-1 1 .45 1 1zm4 0c0 .55-.45 1-1 1s-1-.45-1-1 .45-1 1-1 1 .45 1 1zm4 0c0 .55-.45 1-1 1s-1-.45-1-1 .45-1 1-1 1 .45 1 1zm4 0c0 .55-.45 1-1 1s-1-.45-1-1 .45-1 1-1 1 .45 1 1zm4 0c0 .55-.45 1-1 1s-1-.45-1-1 .45-1 1-1 1 .45 1 1zm4 0c0 .55-.45 1-1 1s-1-.45-1-1 .45-1 1-1 1 .45 1 1zm4 0c0 .55-.45 1-1 1s-1-.45-1-1 .45-1 1-1 1 .45 1 1zm4 0c0 .55-.45 1-1 1s-1-.45-1-1 .45-1 1-1 1 .45 1 1zm4 0c0 .55-.45 1-1 1s-1-.45-1-1 .45-1 1-1 1 .45 1 1zm4 0c0 .55-.45 1-1 1s-1-.45-1-1 .45-1 1-1 1 .45 1 1zm4 0c0 .55-.45 1-1 1s-1-.45-1-1 .45-1 1-1 1 .45 1 1zm4 0c0 .55-.45 1-1 1s-1-.45-1-1 .45-1 1-1 1 .45 1 1zm4 0c0 .55-.45 1-1 1s-1-.45-1-1 .45-1 1-1 1 .45 1 1zm4 0c0 .55-.45 1-1 1s-1-.45-1-1 .45-1 1-1 1 .45 1 1zm4 0c0 .55-.45 1-1 1s-1-.45-1-1 .45-1 1-1 1 .45 1 1zm4 0c0 .55-.45 1-1 1s-1-.45-1-1 .45-1 1-1 1 .45 1 1zm4 0c0 .55-.45 1-1 1s-1-.45-1-1 .45-1 1-1 1 .45 1 1zm4 0c0 .55-.45 1-1 1s-1-.45-1-1 .45-1 1-1 1 .45 1 1zm4 0c0 .55-.45 1-1 1s-1-.45-1-1 .45-1 1-1 1 .45 1 1zm4 0c0 .55-.45 1-1 1s-1-.45-1-1 .45-1 1-1 1 .45 1 1zm4 0c0 .55-.45 1-1 1s-1-.45-1-1 .45-1 1-1 1 .45 1 1zm4 0c0 .55-.45 1-1 1s-1-.45-1-1 .45-1 1-1 1 .45 1 1zm4 0c0 .55-.45 1-1 1s-1-.45-1-1 .45-1 1-1 1 .45 1 1zm4 0c0 .55-.45 1-1 1s-1-.45-1-1 .45-1 1-1 1 .45 1 1zm4 0c0 .55-.45 1-1 1s-1-.45-1-1 .45-1 1-1 1 .45 1 1zm4 0c0 .55-.45 1-1 1s-1-.45-1-1 .45-1 1-1 1 .45 1 1zm4 0c0 .55-.45 1-1 1s-1-.45-1-1 .45-1 1-1 1 .45 1 1zm4 0c0 .55-.45 1-1 1s-1-.45-1-1 .45-1 1-1 1 .45 1 1zm0 4c0 .55-.45 1-1 1s-1-.45-1-1 .45-1 1-1 1 .45 1 1zm0 4c0 .55-.45 1-1 1s-1-.45-1-1 .45-1 1-1 1 .45 1 1zm0 4c0 .55-.45 1-1 1s-1-.45-1-1 .45-1 1-1 1 .45 1 1zm0 4c0 .55-.45 1-1 1s-1-.45-1-1 .45-1 1-1 1 .45 1 1zm0 4c0 .55-.45 1-1 1s-1-.45-1-1 .45-1 1-1 1 .45 1 1zm0 4c0 .55-.45 1-1 1s-1-.45-1-1 .45-1 1-1 1 .45 1 1zm0 4c0 .55-.45 1-1 1s-1-.45-1-1 .45-1 1-1 1 .45 1 1zm0 4c0 .55-.45 1-1 1s-1-.45-1-1 .45-1 1-1 1 .45 1 1zm0 4c0 .55-.45 1-1 1s-1-.45-1-1 .45-1 1-1 1 .45 1 1zm0 4c0 .55-.45 1-1 1s-1-.45-1-1 .45-1 1-1 1 .45 1 1zm0 4c0 .55-.45 1-1 1s-1-.45-1-1 .45-1 1-1 1 .45 1 1zm0 4c0 .55-.45 1-1 1s-1-.45-1-1 .45-1 1-1 1 .45 1 1zm0 4c0 .55-.45 1-1 1s-1-.45-1-1 .45-1 1-1 1 .45 1 1zm0 4c0 .55-.45 1-1 1s-1-.45-1-1 .45-1 1-1 1 .45 1 1zm0 4c0 .55-.45 1-1 1s-1-.45-1-1 .45-1 1-1 1 .45 1 1zm-4 0c0 .55-.45 1-1 1s-1-.45-1-1 .45-1 1-1 1 .45 1 1zm-4 0c0 .55-.45 1-1 1s-1-.45-1-1 .45-1 1-1 1 .45 1 1zm-4 0c0 .55-.45 1-1 1s-1-.45-1-1 .45-1 1-1 1 .45 1 1zm-4 0c0 .55-.45 1-1 1s-1-.45-1-1 .45-1 1-1 1 .45 1 1zm-4 0c0 .55-.45 1-1 1s-1-.45-1-1 .45-1 1-1 1 .45 1 1zm-4 0c0 .55-.45 1-1 1s-1-.45-1-1 .45-1 1-1 1 .45 1 1zm-4 0c0 .55-.45 1-1 1s-1-.45-1-1 .45-1 1-1 1 .45 1 1zm-4 0c0 .55-.45 1-1 1s-1-.45-1-1 .45-1 1-1 1 .45 1 1zm-4 0c0 .55-.45 1-1 1s-1-.45-1-1 .45-1 1-1 1 .45 1 1zm-4 0c0 .55-.45 1-1 1s-1-.45-1-1 .45-1 1-1 1 .45 1 1zm-4 0c0 .55-.45 1-1 1s-1-.45-1-1 .45-1 1-1 1 .45 1 1zm-4 0c0 .55-.45 1-1 1s-1-.45-1-1 .45-1 1-1 1 .45 1 1zm-4 0c0 .55-.45 1-1 1s-1-.45-1-1 .45-1 1-1 1 .45 1 1zm-4 0c0 .55-.45 1-1 1s-1-.45-1-1 .45-1 1-1 1 .45 1 1zm-4 0c0 .55-.45 1-1 1s-1-.45-1-1 .45-1 1-1 1 .45 1 1zm-4 0c0 .55-.45 1-1 1s-1-.45-1-1 .45-1 1-1 1 .45 1 1zm-4 0c0 .55-.45 1-1 1s-1-.45-1-1 .45-1 1-1 1 .45 1 1zm-4 0c0 .55-.45 1-1 1s-1-.45-1-1 .45-1 1-1 1 .45 1 1zm-4 0c0 .55-.45 1-1 1s-1-.45-1-1 .45-1 1-1 1 .45 1 1zm-4 0c0 .55-.45 1-1 1s-1-.45-1-1 .45-1 1-1 1 .45 1 1zm-4 0c0 .55-.45 1-1 1s-1-.45-1-1 .45-1 1-1 1 .45 1 1zm-4 0c0 .55-.45 1-1 1s-1-.45-1-1 .45-1 1-1 1 .45 1 1zm-4 0c0 .55-.45 1-1 1s-1-.45-1-1 .45-1 1-1 1 .45 1 1zm-4 0c0 .55-.45 1-1 1s-1-.45-1-1 .45-1 1-1 1 .45 1 1zm-4 0c0 .55-.45 1-1 1s-1-.45-1-1 .45-1 1-1 1 .45 1 1zm-4 0c0 .55-.45 1-1 1s-1-.45-1-1 .45-1 1-1 1 .45 1 1zm-4 0c0 .55-.45 1-1 1s-1-.45-1-1 .45-1 1-1 1 .45 1 1zm-4 0c0 .55-.45 1-1 1s-1-.45-1-1 .45-1 1-1 1 .45 1 1zm-4 0c0 .55-.45 1-1 1s-1-.45-1-1 .45-1 1-1 1 .45 1 1zm-4 0c0 .55-.45 1-1 1s-1-.45-1-1 .45-1 1-1 1 .45 1 1zm-4 0c0 .55-.45 1-1 1s-1-.45-1-1 .45-1 1-1 1 .45 1 1zm-4 0c0 .55-.45 1-1 1s-1-.45-1-1 .45-1 1-1 1 .45 1 1zm-4 0c0 .55-.45 1-1 1s-1-.45-1-1 .45-1 1-1 1 .45 1 1zm-4 0c0 .55-.45 1-1 1s-1-.45-1-1 .45-1 1-1 1 .45 1 1zm-4 0c0 .55-.45 1-1 1s-1-.45-1-1 .45-1 1-1 1 .45 1 1zm-4 0c0 .55-.45 1-1 1s-1-.45-1-1 .45-1 1-1 1 .45 1 1zm-4 0c0 .55-.45 1-1 1s-1-.45-1-1 .45-1 1-1 1 .45 1 1zm-4 0c0 .55-.45 1-1 1s-1-.45-1-1 .45-1 1-1 1 .45 1 1zm-4 0c0 .55-.45 1-1 1s-1-.45-1-1 .45-1 1-1 1 .45 1 1zm-4 0c0 .55-.45 1-1 1s-1-.45-1-1 .45-1 1-1 1 .45 1 1zm-4 0c0 .55-.45 1-1 1s-1-.45-1-1 .45-1 1-1 1 .45 1 1zm-4 0c0 .55-.45 1-1 1s-1-.45-1-1 .45-1 1-1 1 .45 1 1zm-4 0c0 .55-.45 1-1 1s-1-.45-1-1 .45-1 1-1 1 .45 1 1zm-4 0c0 .55-.45 1-1 1s-1-.45-1-1 .45-1 1-1 1 .45 1 1zm-4 0c0 .55-.45 1-1 1s-1-.45-1-1 .45-1 1-1 1 .45 1 1zm-4 0c0 .55-.45 1-1 1s-1-.45-1-1 .45-1 1-1 1 .45 1 1zm-4 0c0 .55-.45 1-1 1s-1-.45-1-1 .45-1 1-1 1 .45 1 1zm-4 0c0 .55-.45 1-1 1s-1-.45-1-1 .45-1 1-1 1 .45 1 1zm-4 0c0 .55-.45 1-1 1s-1-.45-1-1 .45-1 1-1 1 .45 1 1zm-4 0c0 .55-.45 1-1 1s-1-.45-1-1 .45-1 1-1 1 .45 1 1zm-4 0c0 .55-.45 1-1 1s-1-.45-1-1 .45-1 1-1 1 .45 1 1zm-4 0c0 .55-.45 1-1 1s-1-.45-1-1 .45-1 1-1 1 .45 1 1zm-4 0c0 .55-.45 1-1 1s-1-.45-1-1 .45-1 1-1 1 .45 1 1zm-4 0c0 .55-.45 1-1 1s-1-.45-1-1 .45-1 1-1 1 .45 1 1zm-4 0c0 .55-.45 1-1 1s-1-.45-1-1 .45-1 1-1 1 .45 1 1zm-4 0c0 .55-.45 1-1 1s-1-.45-1-1 .45-1 1-1 1 .45 1 1zm-4 0c0 .55-.45 1-1 1s-1-.45-1-1 .45-1 1-1 1 .45 1 1zm-4 0c0 .55-.45 1-1 1s-1-.45-1-1 .45-1 1-1 1 .45 1 1zm-4 0c0 .55-.45 1-1 1s-1-.45-1-1 .45-1 1-1 1 .45 1 1zm-4 0c0 .55-.45 1-1 1s-1-.45-1-1 .45-1 1-1 1 .45 1 1zm-4 0c0 .55-.45 1-1 1s-1-.45-1-1 .45-1 1-1 1 .45 1 1zm-4 0c0 .55-.45 1-1 1s-1-.45-1-1 .45-1 1-1 1 .45 1 1zm-4 0c0 .55-.45 1-1 1s-1-.45-1-1 .45-1 1-1 1 .45 1 1zm-4 0c0 .55-.45 1-1 1s-1-.45-1-1 .45-1 1-1 1 .45 1 1zm-4 0c0 .55-.45 1-1 1s-1-.45-1-1 .45-1 1-1 1 .45 1 1zm-4 0c0 .55-.45 1-1 1s-1-.45-1-1 .45-1 1-1 1 .45 1 1zm-4 0c0 .55-.45 1-1 1s-1-.45-1-1 .45-1 1-1 1 .45 1 1zm-4 0c0 .55-.45 1-1 1s-1-.45-1-1 .45-1 1-1 1 .45 1 1zm-4 0c0 .55-.45 1-1 1s-1-.45-1-1 .45-1 1-1 1 .45 1 1zm-4 0c0 .55-.45 1-1 1s-1-.45-1-1 .45-1 1-1 1 .45 1 1zm-4 0c0 .55-.45 1-1 1s-1-.45-1-1 .45-1 1-1 1 .45 1 1zm-4 0c0 .55-.45 1-1 1s-1-.45-1-1 .45-1 1-1 1 .45 1 1zm-4 0c0 .55-.45 1-1 1s-1-.45-1-1 .45-1 1-1 1 .45 1 1zm-4 0c0 .55-.45 1-1 1s-1-.45-1-1 .45-1 1-1 1 .45 1 1zm-4 0c0 .55-.45 1-1 1s-1-.45-1-1 .45-1 1-1 1 .45 1 1zm0-4c0 .55-.45 1-1 1s-1-.45-1-1 .45-1 1-1 1 .45 1 1zm0-4c0 .55-.45 1-1 1s-1-.45-1-1 .45-1 1-1 1 .45 1 1zm0-4c0 .55-.45 1-1 1s-1-.45-1-1 .45-1 1-1 1 .45 1 1zm0-4c0 .55-.45 1-1 1s-1-.45-1-1 .45-1 1-1 1 .45 1 1zm0-4c0 .55-.45 1-1 1s-1-.45-1-1 .45-1 1-1 1 .45 1 1zm0-4c0 .55-.45 1-1 1s-1-.45-1-1 .45-1 1-1 1 .45 1 1zm0-4c0 .55-.45 1-1 1s-1-.45-1-1 .45-1 1-1 1 .45 1 1zm0-4c0 .55-.45 1-1 1s-1-.45-1-1 .45-1 1-1 1 .45 1 1zm0-4c0 .55-.45 1-1 1s-1-.45-1-1 .45-1 1-1 1 .45 1 1zm0-4c0 .55-.45 1-1 1s-1-.45-1-1 .45-1 1-1 1 .45 1 1zm0-4c0 .55-.45 1-1 1s-1-.45-1-1 .45-1 1-1 1 .45 1 1zm0-4c0 .55-.45 1-1 1s-1-.45-1-1 .45-1 1-1 1 .45 1 1zm0-4c0 .55-.45 1-1 1s-1-.45-1-1 .45-1 1-1 1 .45 1 1zm0-4c0 .55-.45 1-1 1s-1-.45-1-1 .45-1 1-1 1 .45 1 1zm0-4c0 .55-.45 1-1 1s-1-.45-1-1 .45-1 1-1 1 .45 1 1z"/><use xlink:href="#D" transform="matrix(1,0,0,1,224.99999999999997,765) translate(116.50206163194444 33.113064236111114)"/><use xlink:href="#E" transform="matrix(1,0,0,1,224.99999999999997,765) translate(152.67936197916666 33.113064236111114)"/><path d="M370 712.12v28.38" stroke="#000" stroke-width="2" fill="none"/><path d="M370 711.12l1-.03v1.04h-2v-1.06z"/><path d="M370 755.76l-4.64-14.26h9.28z" stroke="#000" stroke-width="2"/><path d="M370 822v37.5" stroke="#000" stroke-width="2" fill="none"/><path d="M371 822.03h-2V821h2z"/><path d="M370 874.76l-4.64-14.26h9.28z" stroke="#000" stroke-width="2"/><path d="M444.5 640.25h121.25V640H688v97.74" stroke="#000" stroke-width="2" fill="none"/><path d="M444.53 641.25h-1.03v-2h1.03z"/><path d="M688 753l-4.64-14.26h9.28z" stroke="#000" stroke-width="2"/><path d="M370 941v217.74" stroke="#000" stroke-width="2" fill="none"/><path d="M371 941.03h-2V940h2z"/><path d="M370 1174l-4.64-14.26h9.28z" stroke="#000" stroke-width="2"/><path d="M250 1177.24h240v65.52H250z" stroke="#000" stroke-opacity="0" stroke-width="2" fill="#fff" fill-opacity="0"/><use xlink:href="#F" transform="matrix(1,0,0,1,255,1182.2395833333333) translate(57.64865451388888 20.613064236111114)"/><use xlink:href="#G" transform="matrix(1,0,0,1,255,1182.2395833333333) translate(126.88802083333334 20.613064236111114)"/><use xlink:href="#H" transform="matrix(1,0,0,1,255,1182.2395833333333) translate(47.66438802083333 46.06011284722223)"/><path d="M522 909h48v251.5" stroke="#000" stroke-width="2" fill="none"/><path d="M522.03 910H521v-2h1.03z"/><path d="M570 1175.76l-4.64-14.26h9.28z" stroke="#000" stroke-width="2"/><path d="M960 960h240v93.28H960z" stroke="#000" stroke-opacity="0" stroke-width="2" fill="#fff" fill-opacity="0"/><use xlink:href="#I" transform="matrix(1,0,0,1,965,965) translate(-132.94921875 67.8203125)"/><path d="M1326.97 591.6h60V630h-60z" stroke="#000" stroke-width="2" fill="#fff"/><use xlink:href="#J" transform="matrix(1,0,0,1,1331.9650550202493,596.5999999999767) translate(-8.454318576388893 19.520616319444443)"/><path d="M1246.97 679.55h240v60.9h-240z" stroke="#000" stroke-opacity="0" stroke-width="2" fill="#fff" fill-opacity="0"/><use xlink:href="#K" transform="matrix(1,0,0,1,1251.9650550202493,684.5529513888889) translate(24.41351996527777 20.613064236111114)"/><use xlink:href="#L" transform="matrix(1,0,0,1,1251.9650550202493,684.5529513888889) translate(94.71516927083334 20.613064236111114)"/><use xlink:href="#M" transform="matrix(1,0,0,1,1251.9650550202493,684.5529513888889) translate(142.43435329861114 20.613064236111114)"/><use xlink:href="#N" transform="matrix(1,0,0,1,1251.9650550202493,684.5529513888889) translate(51.089952256944436 46.06011284722223)"/><use xlink:href="#O" transform="matrix(1,0,0,1,1251.9650550202493,684.5529513888889) translate(136.12033420138889 46.06011284722223)"/><path d="M1366.97 678.55V649.5" stroke="#000" stroke-width="2" fill="none"/><path d="M1367.97 679.55h-2v-1.02h2z"/><path d="M1366.97 634.24l4.63 14.26h-9.27z" stroke="#000" stroke-width="2"/><path d="M808 480h172v40H808z" stroke="#000" stroke-width="2" fill="#fff"/><use xlink:href="#P" transform="matrix(1,0,0,1,813,485) translate(2.2060546875 22.550564236111114)"/><use xlink:href="#Q" transform="matrix(1,0,0,1,813,485) translate(72.5673828125 22.550564236111114)"/><path d="M808 580h172v40H808z" stroke="#000" stroke-width="2" fill="#fff"/><use xlink:href="#R" transform="matrix(1,0,0,1,813,585) translate(11.730794270833329 22.488064236111114)"/><use xlink:href="#S" transform="matrix(1,0,0,1,813,585) translate(78.32042100694444 22.488064236111114)"/><path d="M90.53 620.5H260L249.47 660H80z" stroke="#000" stroke-width="2" fill="#fff"/><g><use xlink:href="#T" transform="matrix(1,0,0,1,85,625.5002924369182) translate(12.71007812499999 22.488064236111114)"/><use xlink:href="#U" transform="matrix(1,0,0,1,85,625.5002924369182) translate(73.60634548611111 22.488064236111114)"/></g><path d="M256.77 640.25h4.84m9.7 0h9.68m9.68 0h4.84" stroke="#000" stroke-width="2" fill="none"/><path d="M256.8 641.25h-1.3l.53-2h.76zM296.5 641.25h-1.03v-2h1.03z"/><path d="M30.53 889.25H200l-10.53 39.5H20z" stroke="#000" stroke-width="2" fill="#fff"/><g><use xlink:href="#V" transform="matrix(1,0,0,1,25,894.2495613446572) translate(19.447816840277774 22.488064236111114)"/><use xlink:href="#W" transform="matrix(1,0,0,1,25,894.2495613446572) translate(66.86860677083334 22.488064236111114)"/></g><path d="M196.77 909h3.18m4.25 0h6.37m4.25 0H218" stroke="#000" stroke-width="2" fill="none"/><path d="M196.8 910h-1.3l.53-2h.76zM219 910h-1.03v-2H219z"/><path d="M260 420h220v80H260z" stroke="#000" stroke-width="2" fill="#fff"/><g><use xlink:href="#X" transform="matrix(1,0,0,1,265,425) translate(30.723741319444443 42.488064236111114)"/><use xlink:href="#Y" transform="matrix(1,0,0,1,265,425) translate(93.70876736111111 42.488064236111114)"/></g><path d="M371 363v37.5" stroke="#000" stroke-width="2" fill="none"/><path d="M372 363.03h-2V362h2z"/><path d="M371 415.76l-4.63-14.26h9.27z" stroke="#000" stroke-width="2"/><path d="M370 502v48.88" stroke="#000" stroke-width="2" fill="none"/><path d="M371 502.03h-2V501h2z"/><path d="M370 566.15l-4.64-14.27h9.28z" stroke="#000" stroke-width="2"/><path d="M602 400h172v40H602z" stroke="#000" stroke-width="2" fill="#fff"/><g><use xlink:href="#Z" transform="matrix(1,0,0,1,607,405) translate(28.446831597222214 22.550564236111114)"/></g><path d="M688 323v57.5" stroke="#000" stroke-width="2" fill="none"/><path d="M689 323.03h-2V322h2z"/><path d="M688 395.76l-4.64-14.26h9.28z" stroke="#000" stroke-width="2"/><path d="M688 442v18.5" stroke="#000" stroke-width="2" fill="none"/><path d="M689 442.03h-2V441h2z"/><path d="M688 475.76l-4.64-14.26h9.28z" stroke="#000" stroke-width="2"/><path d="M808 530h172v40H808z" stroke="#000" stroke-width="2" fill="#fff"/><g><use xlink:href="#aa" transform="matrix(1,0,0,1,813,535) translate(3.638346354166657 22.488064236111114)"/><use xlink:href="#ab" transform="matrix(1,0,0,1,813,535) translate(71.13509114583333 22.488064236111114)"/></g><defs><path d="M941-647c26-3 73 47 73 73V0H849v-107C760-22 652 21 525 21 250 21 36-232 36-512v-335c-8-279 214-533 489-533 286 0 497 258 490 552H849c3-216-117-387-324-387-186 0-324 162-324 352v367c-4 191 136 352 324 352 183 0 322-159 325-339H570c0-55 0-110 1-164h370" id="ac"/><path d="M233-1172c-50 0-96-44-96-94 0-49 46-93 96-93s96 43 96 93c0 52-44 94-96 94zM26-970h289V0H150v-805H26v-165" id="ad"/><path d="M838-484c0-173-151-342-322-342-177 0-319 167-319 342 0 176 146 340 319 340 171 0 322-167 322-340zm-807 0c0-265 224-507 485-507 260 0 487 246 487 507 0 260-229 505-487 505C255 21 31-224 31-484" id="ae"/><path d="M187-970l311 757c69-168 171-420 308-757h181L592 0H399L3-970h184" id="af"/><path d="M484-144c91 0 275-43 275-120v-184c-54 18-283 13-339 27-84 21-172 73-172 157 0 80 79 120 236 120zm27-847c168 0 413 106 413 260v563c0 15 16 23 48 26-4 64-6 118-6 163-81-4-138-29-172-76-80 51-181 76-304 76C213 21 75-75 75-266c0-155 132-276 270-302-15-8 340-16 395-49 13-7 20-20 21-39-1 24-2 8-2-49 0-71-154-124-234-124-152 0-248 58-288 173L79-690c32-191 203-301 432-301" id="ag"/><path d="M530-826c-179 0-312 160-312 342V0H53v-970h165v127c78-99 182-148 312-148 289 0 456 203 456 499V0H819v-484c2-203-95-342-289-342" id="ah"/><g id="a"><use transform="matrix(0.01193576388888889,0,0,0.01193576388888889,0,0)" xlink:href="#ac"/><use transform="matrix(0.01193576388888889,0,0,0.01193576388888889,13.952907986111112,0)" xlink:href="#ad"/><use transform="matrix(0.01193576388888889,0,0,0.01193576388888889,19.085286458333336,0)" xlink:href="#ae"/><use transform="matrix(0.01193576388888889,0,0,0.01193576388888889,32.87109375,0)" xlink:href="#af"/><use transform="matrix(0.01193576388888889,0,0,0.01193576388888889,46.13172743055556,0)" xlink:href="#ag"/><use transform="matrix(0.01193576388888889,0,0,0.01193576388888889,59.213324652777786,0)" xlink:href="#ah"/><use transform="matrix(0.01193576388888889,0,0,0.01193576388888889,72.90364583333334,0)" xlink:href="#ah"/><use transform="matrix(0.01193576388888889,0,0,0.01193576388888889,86.5939670138889,0)" xlink:href="#ad"/><use transform="matrix(0.01193576388888889,0,0,0.01193576388888889,91.72634548611113,0)" xlink:href="#ah"/><use transform="matrix(0.01193576388888889,0,0,0.01193576388888889,105.41666666666667,0)" xlink:href="#ae"/></g><path d="M540 22C268 22 57-229 57-506v-345c-8-277 211-528 483-528 249 0 439 198 473 423H885c-28-159-165-293-345-293-205 0-353 174-353 382v377c-5 208 148 382 353 382 180 0 318-134 345-293h128C979-176 789 22 540 22" id="ai"/><path d="M543-849c-184 0-339 185-339 371V0H74v-1355h130v572c84-131 197-196 339-196 250 0 421 235 421 493V0H834v-478c4-195-107-371-291-371" id="aj"/><path d="M550-827c-191 0-346 159-346 349V0H72v-957h132v174c85-116 198-174 339-174h204v174c-69-29-134-44-197-44" id="ak"/><path d="M881-477c0-189-160-372-351-372-189 0-348 181-348 372s160 369 348 369 351-180 351-369zm-829-1c0-256 220-501 478-501 257 0 481 246 481 502S785 22 530 22C276 22 52-223 52-478" id="al"/><path d="M455-849c-173 0-251 180-251 371V0H74v-957h130v106c60-85 144-128 251-128 146 0 245 69 296 208 37-139 135-208 295-208 233 0 349 167 349 501V0h-130v-478c0-247-73-371-219-371-169 0-241 180-241 371V0H675l-1-478c0-247-73-371-219-371" id="am"/><path d="M240-1205c-40 0-79-36-79-76s39-76 79-76c41 0 78 35 78 76s-37 76-78 76zM47-957h257V0H174v-827H47v-130" id="an"/><path d="M483-108c191 0 291-169 291-370v-479h130V0H774v-137C701-31 604 22 483 22 219 22 67-183 67-456v-501h130v501c-4 182 112 348 286 348" id="ao"/><g id="b"><use transform="matrix(0.01193576388888889,0,0,0.01193576388888889,0,0)" xlink:href="#ai"/><use transform="matrix(0.01193576388888889,0,0,0.01193576388888889,13.177083333333334,0)" xlink:href="#aj"/><use transform="matrix(0.01193576388888889,0,0,0.01193576388888889,25.721571180555557,0)" xlink:href="#ak"/><use transform="matrix(0.01193576388888889,0,0,0.01193576388888889,34.61371527777778,0)" xlink:href="#al"/><use transform="matrix(0.01193576388888889,0,0,0.01193576388888889,48.04144965277778,0)" xlink:href="#am"/><use transform="matrix(0.01193576388888889,0,0,0.01193576388888889,66.50607638888889,0)" xlink:href="#an"/><use transform="matrix(0.01193576388888889,0,0,0.01193576388888889,71.28038194444444,0)" xlink:href="#ao"/><use transform="matrix(0.01193576388888889,0,0,0.01193576388888889,83.69357638888889,0)" xlink:href="#am"/></g><path d="M209-478c0 191 154 370 342 370 187 0 348-181 348-370S737-849 551-849c-188 0-342 180-342 371zm820 0c0 258-224 500-478 500-147 0-262-65-347-196v573H74V-957h130v174c85-131 200-196 347-196 256 0 478 244 478 501" id="ap"/><g id="c"><use transform="matrix(0.01193576388888889,0,0,0.01193576388888889,0,0)" xlink:href="#ap"/><use transform="matrix(0.01193576388888889,0,0,0.01193576388888889,13.284505208333334,0)" xlink:href="#ao"/><use transform="matrix(0.01193576388888889,0,0,0.01193576388888889,25.69769965277778,0)" xlink:href="#ap"/></g><path d="M695-649l-152-510-156 510h308zM888 0L732-517H348L192 0H57l406-1355h160L1029 0H888" id="aq"/><path d="M985-938c0 247-271 428-529 421H204V0H72v-1355h384c256-7 529 172 529 417zm-130 0c0-191-192-287-399-287H204v578h252c200 4 399-104 399-291" id="ar"/><path d="M540-1249c-205 0-353 174-353 382v377c-5 208 148 382 353 382s353-174 353-382v-377c5-208-148-382-353-382zm0-130c272 0 483 251 483 528v345c8 277-211 528-483 528S57-229 57-506v-345c-8-277 211-528 483-528" id="as"/><path d="M204-1131V0H72v-1355h167l417 834 417-834h172V0h-133v-1131L732-373H584" id="at"/><g id="d"><use transform="matrix(0.01193576388888889,0,0,0.01193576388888889,0,0)" xlink:href="#ai"/><use transform="matrix(0.01193576388888889,0,0,0.01193576388888889,13.177083333333334,0)" xlink:href="#aq"/><use transform="matrix(0.01193576388888889,0,0,0.01193576388888889,26.903211805555557,0)" xlink:href="#ar"/><use transform="matrix(0.01193576388888889,0,0,0.01193576388888889,39.55512152777778,0)" xlink:href="#ai"/><use transform="matrix(0.01193576388888889,0,0,0.01193576388888889,52.732204861111114,0)" xlink:href="#as"/><use transform="matrix(0.01193576388888889,0,0,0.01193576388888889,66.24348958333334,0)" xlink:href="#at"/></g><path d="M395 0L60-957h137l259 739 167-476-93-263h137l262 744 258-744h138L991 0H866L692-498 516 0H395" id="au"/><path d="M52-478c0-256 228-501 485-501 264 0 489 248 480 516H180c0 180 174 355 357 355 148 0 301-110 347-219l130 23C955-140 749 17 537 22 280 28 52-222 52-478zm815-115c-38-129-172-257-330-256-158 0-295 130-340 256h670" id="av"/><path d="M922-478c0-187-188-371-375-371S209-669 209-478c0 190 155 370 343 370 187 0 370-183 370-370zm130 0c0 255-245 500-500 500-147 0-263-65-348-196V0H72v-1355h132v572c82-131 196-196 343-196 256 0 505 245 505 501" id="aw"/><path d="M898-260C898-89 674 20 489 20 280 20 75-78 57-254l126-27c2 114 176 171 313 171 113 0 265-50 265-150 0-60-40-102-120-127-21-6-104-22-252-42-166-23-242-71-302-158-134-339 365-481 654-327 94 50 148 120 161 213l-126 27c-25-116-134-174-329-174-116 0-251 47-251 149 0 73 54 127 164 147 83 15 168 18 253 29 83 11 158 46 225 101 40 33 60 87 60 162" id="ax"/><path d="M406 0C279 4 176-105 176-232v-595H26v-130c75 0 120-17 137-51 9-17 13-69 13-155h130v206h241v130H306v595c0 70 49 105 146 105 18 0 78-3 95-3V0H406" id="ay"/><g id="e"><use transform="matrix(0.01193576388888889,0,0,0.01193576388888889,0,0)" xlink:href="#au"/><use transform="matrix(0.01193576388888889,0,0,0.01193576388888889,17.175564236111114,0)" xlink:href="#av"/><use transform="matrix(0.01193576388888889,0,0,0.01193576388888889,30.603298611111114,0)" xlink:href="#aw"/><use transform="matrix(0.01193576388888889,0,0,0.01193576388888889,44.18619791666667,0)" xlink:href="#ax"/><use transform="matrix(0.01193576388888889,0,0,0.01193576388888889,56.15776909722223,0)" xlink:href="#an"/><use transform="matrix(0.01193576388888889,0,0,0.01193576388888889,60.932074652777786,0)" xlink:href="#ay"/><use transform="matrix(0.01193576388888889,0,0,0.01193576388888889,68.23676215277779,0)" xlink:href="#av"/></g><path d="M170-1355L508-232l343-1123h134L580 0H439L33-1355h137" id="az"/><path d="M545-849c-196 0-341 171-341 371V0H74v-957h130v174c77-131 190-196 341-196 285 0 449 200 449 493V0H862v-478c2-219-106-371-317-371" id="aA"/><path d="M-2-478c0-256 249-501 505-501 147 0 261 65 343 196v-572h132V0H846v-174C761-43 645 22 498 22 243 22-2-223-2-478zm843 0c0-191-151-371-338-371S128-665 128-478s183 370 370 370c188 0 343-180 343-370" id="aB"/><g id="f"><use transform="matrix(0.01193576388888889,0,0,0.01193576388888889,0,0)" xlink:href="#az"/><use transform="matrix(0.01193576388888889,0,0,0.01193576388888889,12.90256076388889,0)" xlink:href="#av"/><use transform="matrix(0.01193576388888889,0,0,0.01193576388888889,26.33029513888889,0)" xlink:href="#ak"/><use transform="matrix(0.01193576388888889,0,0,0.01193576388888889,36.55924479166667,0)" xlink:href="#ax"/><use transform="matrix(0.01193576388888889,0,0,0.01193576388888889,48.53081597222223,0)" xlink:href="#an"/><use transform="matrix(0.01193576388888889,0,0,0.01193576388888889,53.30512152777778,0)" xlink:href="#al"/><use transform="matrix(0.01193576388888889,0,0,0.01193576388888889,66.73285590277779,0)" xlink:href="#aA"/><use transform="matrix(0.01193576388888889,0,0,0.01193576388888889,80.06510416666667,0)" xlink:href="#av"/><use transform="matrix(0.01193576388888889,0,0,0.01193576388888889,93.49283854166667,0)" xlink:href="#aB"/></g><path d="M426-108c139 0 276-121 276-261v-856H508v-130h326v993c9 202-201 384-406 384C219 22 5-162 14-369v-126h130v132c-8 123 158 255 282 255" id="aC"/><path d="M892-988c1-180-155-261-350-261-239 0-359 83-359 250 0 109 72 186 218 225 134 36 273 57 404 101 148 49 217 165 217 318 0 218-259 377-488 377C285 22 54-135 53-369h130c6 176 157 261 349 261 178 0 360-88 360-250 0-109-72-188-217-228-134-37-272-59-404-103C123-738 53-851 53-998c0-227 241-381 478-381 258 0 497 146 491 391H892" id="aD"/><path d="M227-1355L895-225v-1130h132V0H873L204-1135V0H72v-1355h155" id="aE"/><g id="g"><use transform="matrix(0.01193576388888889,0,0,0.01193576388888889,0,0)" xlink:href="#aC"/><use transform="matrix(0.01193576388888889,0,0,0.01193576388888889,11.39865451388889,0)" xlink:href="#aD"/><use transform="matrix(0.01193576388888889,0,0,0.01193576388888889,24.82638888888889,0)" xlink:href="#as"/><use transform="matrix(0.01193576388888889,0,0,0.01193576388888889,38.337673611111114,0)" xlink:href="#aE"/></g><path d="M865-1355v130H204v424h531v134H204V0H74v-1355h791" id="aF"/><path d="M497-108c108 0 303-51 303-143v-220c-2 23-338 19-365 38-104 20-200 82-200 182 0 95 87 143 262 143zm28-871c161 0 405 100 405 248v579c0 27 16 41 48 44-1 21-3 64-5 129-72-4-122-33-151-87-82 59-188 88-318 88C233 22 97-70 97-253c0-145 124-253 248-288 70-20 368-9 427-58 17-9 27-25 29-46-1 7-1-13-1-60 0-84-168-147-260-147-166 0-269 58-309 174l-126-27c31-178 203-274 420-274" id="aG"/><g id="h"><use transform="matrix(0.01193576388888889,0,0,0.01193576388888889,0,0)" xlink:href="#aF"/><use transform="matrix(0.01193576388888889,0,0,0.01193576388888889,11.016710069444445,0)" xlink:href="#ak"/><use transform="matrix(0.01193576388888889,0,0,0.01193576388888889,20.290798611111114,0)" xlink:href="#aG"/><use transform="matrix(0.01193576388888889,0,0,0.01193576388888889,33.01432291666667,0)" xlink:href="#am"/><use transform="matrix(0.01193576388888889,0,0,0.01193576388888889,51.47894965277778,0)" xlink:href="#av"/><use transform="matrix(0.01193576388888889,0,0,0.01193576388888889,64.90668402777779,0)" xlink:href="#aB"/><use transform="matrix(0.01193576388888889,0,0,0.01193576388888889,78.19118923611111,0)" xlink:href="#aG"/><use transform="matrix(0.01193576388888889,0,0,0.01193576388888889,90.341796875,0)" xlink:href="#ay"/><use transform="matrix(0.01193576388888889,0,0,0.01193576388888889,97.646484375,0)" xlink:href="#aG"/></g><path d="M51-478c0-256 221-509 478-501 201 6 353 126 426 274H803c-71-96-163-144-274-144-189 0-348 180-348 372 0 191 160 369 348 369 100 0 189-44 266-132h155C852-65 712 22 529 22 275 22 51-223 51-478" id="aH"/><g id="i"><use transform="matrix(0.01193576388888889,0,0,0.01193576388888889,0,0)" xlink:href="#ax"/><use transform="matrix(0.01193576388888889,0,0,0.01193576388888889,11.971571180555557,0)" xlink:href="#al"/><use transform="matrix(0.01193576388888889,0,0,0.01193576388888889,25.399305555555557,0)" xlink:href="#ao"/><use transform="matrix(0.01193576388888889,0,0,0.01193576388888889,37.8125,0)" xlink:href="#ak"/><use transform="matrix(0.01193576388888889,0,0,0.01193576388888889,48.04144965277778,0)" xlink:href="#aH"/><use transform="matrix(0.01193576388888889,0,0,0.01193576388888889,60.979817708333336,0)" xlink:href="#av"/></g><path d="M267-1203c-40 0-79-36-79-76s39-76 79-76c41 0 78 35 78 76s-37 76-78 76zM11 265c103 3 189-67 189-167v-923c-41-1-88 3-126-2v-130h257L330 98c5 177-143 304-319 301V265" id="aI"/><g id="j"><use transform="matrix(0.01193576388888889,0,0,0.01193576388888889,0,0)" xlink:href="#aH"/><use transform="matrix(0.01193576388888889,0,0,0.01193576388888889,12.938368055555557,0)" xlink:href="#ak"/><use transform="matrix(0.01193576388888889,0,0,0.01193576388888889,21.83051215277778,0)" xlink:href="#al"/><use transform="matrix(0.01193576388888889,0,0,0.01193576388888889,35.25824652777778,0)" xlink:href="#aA"/><use transform="matrix(0.01193576388888889,0,0,0.01193576388888889,48.59049479166667,0)" xlink:href="#aI"/><use transform="matrix(0.01193576388888889,0,0,0.01193576388888889,53.60351562500001,0)" xlink:href="#al"/><use transform="matrix(0.01193576388888889,0,0,0.01193576388888889,67.03125000000001,0)" xlink:href="#aw"/></g><path d="M543 22C276 22 65-235 65-506v-849h130v867c-5 202 149 380 348 380s349-180 349-384v-863h130v849c8 271-212 528-479 528" id="aJ"/><g id="k"><use transform="matrix(0.01193576388888889,0,0,0.01193576388888889,0,0)" xlink:href="#aJ"/><use transform="matrix(0.01193576388888889,0,0,0.01193576388888889,13.726128472222223,0)" xlink:href="#ax"/><use transform="matrix(0.01193576388888889,0,0,0.01193576388888889,25.69769965277778,0)" xlink:href="#av"/><use transform="matrix(0.01193576388888889,0,0,0.01193576388888889,39.12543402777778,0)" xlink:href="#ak"/></g><g id="l"><use transform="matrix(0.01193576388888889,0,0,0.01193576388888889,0,0)" xlink:href="#an"/><use transform="matrix(0.01193576388888889,0,0,0.01193576388888889,4.774305555555556,0)" xlink:href="#aA"/><use transform="matrix(0.01193576388888889,0,0,0.01193576388888889,18.106553819444446,0)" xlink:href="#ap"/><use transform="matrix(0.01193576388888889,0,0,0.01193576388888889,31.39105902777778,0)" xlink:href="#ao"/><use transform="matrix(0.01193576388888889,0,0,0.01193576388888889,43.80425347222222,0)" xlink:href="#ay"/></g><path d="M76-478c0-256 220-501 478-501 147 0 262 65 347 196v-174h130V399H901v-573C816-43 701 22 554 22 300 22 76-220 76-478zm130 0c0 189 161 370 348 370 188 0 342-180 342-370 0-191-154-371-342-371-186 0-348 182-348 371" id="aK"/><path d="M253 269c88 1 142-24 163-75L519-65 33-957h148l400 735 292-735h140L555 194c-58 142-154 210-302 205V269" id="aL"/><g id="m"><use transform="matrix(0.01193576388888889,0,0,0.01193576388888889,0,0)" xlink:href="#aK"/><use transform="matrix(0.01193576388888889,0,0,0.01193576388888889,13.917100694444446,0)" xlink:href="#ao"/><use transform="matrix(0.01193576388888889,0,0,0.01193576388888889,26.33029513888889,0)" xlink:href="#av"/><use transform="matrix(0.01193576388888889,0,0,0.01193576388888889,39.75802951388889,0)" xlink:href="#ak"/><use transform="matrix(0.01193576388888889,0,0,0.01193576388888889,49.98697916666667,0)" xlink:href="#aL"/></g><path d="M218-1036V0H51v-1357h194l393 787 393-787h200V0h-169v-1036L724-363H556" id="aM"/><path d="M816-616c-46-109-154-210-294-210-133 0-258 109-301 210h595zM31-484c0-260 230-507 491-507 282 0 495 254 487 541H196c10 148 163 311 326 306 147-5 277-104 326-215l166 28C947-150 753 16 522 21 260 27 31-223 31-484" id="aN"/><path d="M1018-991c257 0 359 224 359 507V0h-166v-484c0-228-64-342-193-342-155-1-215 166-215 342V0H637l-1-484c0-228-64-342-193-342-159-1-225 164-225 342V0H53v-970h165v68c59-59 134-89 225-89 133 0 229 56 286 168 46-112 142-168 289-168" id="aO"/><g id="n"><use transform="matrix(0.01193576388888889,0,0,0.01193576388888889,0,0)" xlink:href="#aM"/><use transform="matrix(0.01193576388888889,0,0,0.01193576388888889,17.008463541666668,0)" xlink:href="#ae"/><use transform="matrix(0.01193576388888889,0,0,0.01193576388888889,30.794270833333336,0)" xlink:href="#af"/><use transform="matrix(0.01193576388888889,0,0,0.01193576388888889,43.100043402777786,0)" xlink:href="#aN"/><use transform="matrix(0.01193576388888889,0,0,0.01193576388888889,56.88585069444446,0)" xlink:href="#ah"/><use transform="matrix(0.01193576388888889,0,0,0.01193576388888889,70.57617187500001,0)" xlink:href="#ag"/><use transform="matrix(0.01193576388888889,0,0,0.01193576388888889,83.65776909722224,0)" xlink:href="#aO"/><use transform="matrix(0.01193576388888889,0,0,0.01193576388888889,102.48046875000003,0)" xlink:href="#aN"/></g><path d="M535-805c-177 0-317 145-317 321V0H51v-970h167v134c85-89 189-134 310-134h218v218c-83-35-153-53-211-53" id="aP"/><path d="M68-580C-45-823 215-987 454-987c229 0 422 106 446 301l-161 34c-17-73-62-125-139-149-121-38-274-36-352 29-25 21-38 44-38 71 0 66 59 112 178 131 86 13 176 12 261 32 115 27 244 96 244 266 0 81-40 141-102 191C645 38 359 49 192-49 101-102 48-180 33-282l163-35c5 118 149 172 287 172 93 0 238-46 238-127 0-45-37-74-103-103-48-21-337-53-386-71-61-22-144-92-164-134" id="aQ"/><path d="M125-1357h167V0H125v-1357" id="aR"/><g id="o"><use transform="matrix(0.01193576388888889,0,0,0.01193576388888889,0,0)" xlink:href="#aP"/><use transform="matrix(0.01193576388888889,0,0,0.01193576388888889,9.632161458333334,0)" xlink:href="#aN"/><use transform="matrix(0.01193576388888889,0,0,0.01193576388888889,23.41796875,0)" xlink:href="#aQ"/><use transform="matrix(0.01193576388888889,0,0,0.01193576388888889,35.74761284722222,0)" xlink:href="#ae"/><use transform="matrix(0.01193576388888889,0,0,0.01193576388888889,49.53342013888888,0)" xlink:href="#aR"/><use transform="matrix(0.01193576388888889,0,0,0.01193576388888889,54.689670138888886,0)" xlink:href="#af"/><use transform="matrix(0.01193576388888889,0,0,0.01193576388888889,66.99544270833333,0)" xlink:href="#aN"/><use transform="matrix(0.01193576388888889,0,0,0.01193576388888889,80.78125,0)" xlink:href="#aP"/></g><g id="p"><use transform="matrix(0.01193576388888889,0,0,0.01193576388888889,0,0)" xlink:href="#aH"/><use transform="matrix(0.01193576388888889,0,0,0.01193576388888889,12.938368055555557,0)" xlink:href="#al"/><use transform="matrix(0.01193576388888889,0,0,0.01193576388888889,26.366102430555557,0)" xlink:href="#am"/><use transform="matrix(0.01193576388888889,0,0,0.01193576388888889,44.83072916666667,0)" xlink:href="#am"/><use transform="matrix(0.01193576388888889,0,0,0.01193576388888889,63.295355902777786,0)" xlink:href="#al"/><use transform="matrix(0.01193576388888889,0,0,0.01193576388888889,76.72309027777779,0)" xlink:href="#aA"/></g><path d="M86-101c0-65 55-113 120-113 56 0 111 53 111 109 0 139-105 285-233 290l-15-58c81-31 123-70 126-115-60-2-109-50-109-113" id="aS"/><g id="q"><use transform="matrix(0.01193576388888889,0,0,0.01193576388888889,0,0)" xlink:href="#aA"/><use transform="matrix(0.01193576388888889,0,0,0.01193576388888889,13.33224826388889,0)" xlink:href="#aG"/><use transform="matrix(0.01193576388888889,0,0,0.01193576388888889,26.055772569444446,0)" xlink:href="#am"/><use transform="matrix(0.01193576388888889,0,0,0.01193576388888889,44.52039930555556,0)" xlink:href="#av"/><use transform="matrix(0.01193576388888889,0,0,0.01193576388888889,57.94813368055556,0)" xlink:href="#ax"/><use transform="matrix(0.01193576388888889,0,0,0.01193576388888889,69.91970486111111,0)" xlink:href="#aS"/></g><path d="M224-957l269 369 270-369h164L577-475 927 0H760L493-366 227 0H61l352-475L61-957h163" id="aT"/><g id="r"><use transform="matrix(0.01193576388888889,0,0,0.01193576388888889,0,0)" xlink:href="#av"/><use transform="matrix(0.01193576388888889,0,0,0.01193576388888889,13.427734375000002,0)" xlink:href="#aT"/><use transform="matrix(0.01193576388888889,0,0,0.01193576388888889,25.888671875000004,0)" xlink:href="#ap"/><use transform="matrix(0.01193576388888889,0,0,0.01193576388888889,39.173177083333336,0)" xlink:href="#ak"/><use transform="matrix(0.01193576388888889,0,0,0.01193576388888889,48.447265625,0)" xlink:href="#av"/><use transform="matrix(0.01193576388888889,0,0,0.01193576388888889,61.87500000000001,0)" xlink:href="#ax"/><use transform="matrix(0.01193576388888889,0,0,0.01193576388888889,73.84657118055556,0)" xlink:href="#ax"/><use transform="matrix(0.01193576388888889,0,0,0.01193576388888889,85.81814236111111,0)" xlink:href="#an"/><use transform="matrix(0.01193576388888889,0,0,0.01193576388888889,90.59244791666667,0)" xlink:href="#al"/><use transform="matrix(0.01193576388888889,0,0,0.01193576388888889,104.02018229166667,0)" xlink:href="#aA"/><use transform="matrix(0.01193576388888889,0,0,0.01193576388888889,117.35243055555557,0)" xlink:href="#ax"/></g><path d="M72-660h523v130H72v-130" id="aU"/><path d="M110-1154l475 491v171L110 0v-178l369-397-369-401v-178" id="aV"/><g id="s"><use transform="matrix(0.01193576388888889,0,0,0.01193576388888889,0,0)" xlink:href="#aU"/><use transform="matrix(0.01193576388888889,0,0,0.01193576388888889,8.462456597222223,0)" xlink:href="#aV"/></g><path d="M431-1222c-103-2-191 65-188 167v98h188v130H243V0H111v-827H33v-130h78c-7-146 8-241 94-317 61-53 135-81 226-81v133" id="aW"/><path d="M86-1355h132V0H86v-1355" id="aX"/><g id="t"><use transform="matrix(0.01193576388888889,0,0,0.01193576388888889,0,0)" xlink:href="#al"/><use transform="matrix(0.01193576388888889,0,0,0.01193576388888889,13.427734375000002,0)" xlink:href="#aW"/><use transform="matrix(0.01193576388888889,0,0,0.01193576388888889,19.216579861111114,0)" xlink:href="#aW"/><use transform="matrix(0.01193576388888889,0,0,0.01193576388888889,25.005425347222225,0)" xlink:href="#an"/><use transform="matrix(0.01193576388888889,0,0,0.01193576388888889,29.77973090277778,0)" xlink:href="#aH"/><use transform="matrix(0.01193576388888889,0,0,0.01193576388888889,42.71809895833334,0)" xlink:href="#an"/><use transform="matrix(0.01193576388888889,0,0,0.01193576388888889,47.4924045138889,0)" xlink:href="#aG"/><use transform="matrix(0.01193576388888889,0,0,0.01193576388888889,60.21592881944446,0)" xlink:href="#aX"/></g><path d="M541-898H411v-457h130v457zm-306 0H105v-457h130v457" id="aY"/><g id="u"><use transform="matrix(0.01193576388888889,0,0,0.01193576388888889,0,0)" xlink:href="#aY"/><use transform="matrix(0.01193576388888889,0,0,0.01193576388888889,7.841796875000001,0)" xlink:href="#ay"/><use transform="matrix(0.01193576388888889,0,0,0.01193576388888889,15.146484375000002,0)" xlink:href="#aG"/><use transform="matrix(0.01193576388888889,0,0,0.01193576388888889,27.870008680555557,0)" xlink:href="#aw"/><use transform="matrix(0.01193576388888889,0,0,0.01193576388888889,41.452907986111114,0)" xlink:href="#aX"/><use transform="matrix(0.01193576388888889,0,0,0.01193576388888889,45.69010416666667,0)" xlink:href="#av"/></g><g id="v"><use transform="matrix(0.01193576388888889,0,0,0.01193576388888889,0,0)" xlink:href="#aA"/><use transform="matrix(0.01193576388888889,0,0,0.01193576388888889,13.33224826388889,0)" xlink:href="#aG"/><use transform="matrix(0.01193576388888889,0,0,0.01193576388888889,26.055772569444446,0)" xlink:href="#am"/><use transform="matrix(0.01193576388888889,0,0,0.01193576388888889,44.52039930555556,0)" xlink:href="#av"/><use transform="matrix(0.01193576388888889,0,0,0.01193576388888889,57.94813368055556,0)" xlink:href="#aY"/></g><path d="M806-824c4-200-126-368-320-368H218v1027h268c188 5 320-174 320-368v-291zm165 291C979-257 759 0 486 0H53v-1357h433c271-10 485 257 485 533v291" id="aZ"/><path d="M30-484c0-265 224-507 485-507 196 0 345 102 446 305H770c-63-93-148-140-255-140-177 0-319 167-319 342 0 176 146 340 319 340 93 0 176-43 249-128h193C846-77 699 21 515 21 254 21 30-224 30-484" id="ba"/><path d="M860-484c0-175-137-342-310-342-172 0-345 169-345 342s167 340 340 340c172 0 315-166 315-340zm-820 0c0-260 250-507 510-507 131 0 236 50 315 149v-515h167V0H865v-128C782-29 675 21 545 21 285 21 40-224 40-484" id="bb"/><g id="w"><use transform="matrix(0.01193576388888889,0,0,0.01193576388888889,0,0)" xlink:href="#aZ"/><use transform="matrix(0.01193576388888889,0,0,0.01193576388888889,13.451605902777779,0)" xlink:href="#ad"/><use transform="matrix(0.01193576388888889,0,0,0.01193576388888889,18.583984375,0)" xlink:href="#aQ"/><use transform="matrix(0.01193576388888889,0,0,0.01193576388888889,30.913628472222218,0)" xlink:href="#ba"/><use transform="matrix(0.01193576388888889,0,0,0.01193576388888889,43.42230902777778,0)" xlink:href="#ae"/><use transform="matrix(0.01193576388888889,0,0,0.01193576388888889,57.208116319444436,0)" xlink:href="#aP"/><use transform="matrix(0.01193576388888889,0,0,0.01193576388888889,67.79513888888889,0)" xlink:href="#bb"/></g><path d="M770-968c0-129-144-224-277-224H218v448h271c138 4 281-91 281-224zm67 592c0-117-165-199-291-199H218v410h328c125 5 291-93 291-211zm161 0C998-158 773 0 546 0H53v-1357h433c236-5 449 159 449 389 0 115-46 209-137 282 133 73 200 176 200 310" id="bc"/><path d="M395 0C260 4 152-110 152-245v-560H6v-165c76 0 121-15 136-44 7-13 10-65 10-156h165v200h235v165H317v560c-9 115 138 72 235 80V0H395" id="bd"/><g id="x"><use transform="matrix(0.01193576388888889,0,0,0.01193576388888889,0,0)" xlink:href="#bc"/><use transform="matrix(0.01193576388888889,0,0,0.01193576388888889,13.726128472222223,0)" xlink:href="#ae"/><use transform="matrix(0.01193576388888889,0,0,0.01193576388888889,27.511935763888893,0)" xlink:href="#bd"/></g><g id="y"><use transform="matrix(0.01193576388888889,0,0,0.01193576388888889,0,0)" xlink:href="#aW"/><use transform="matrix(0.01193576388888889,0,0,0.01193576388888889,5.788845486111112,0)" xlink:href="#ak"/><use transform="matrix(0.01193576388888889,0,0,0.01193576388888889,15.062934027777779,0)" xlink:href="#aG"/><use transform="matrix(0.01193576388888889,0,0,0.01193576388888889,27.786458333333336,0)" xlink:href="#am"/><use transform="matrix(0.01193576388888889,0,0,0.01193576388888889,46.25108506944445,0)" xlink:href="#av"/><use transform="matrix(0.01193576388888889,0,0,0.01193576388888889,59.67881944444445,0)" xlink:href="#aB"/><use transform="matrix(0.01193576388888889,0,0,0.01193576388888889,72.96332465277779,0)" xlink:href="#aG"/><use transform="matrix(0.01193576388888889,0,0,0.01193576388888889,85.11393229166667,0)" xlink:href="#ay"/><use transform="matrix(0.01193576388888889,0,0,0.01193576388888889,92.41861979166667,0)" xlink:href="#aG"/></g><g id="z"><use transform="matrix(0.01193576388888889,0,0,0.01193576388888889,0,0)" xlink:href="#ak"/><use transform="matrix(0.01193576388888889,0,0,0.01193576388888889,9.274088541666668,0)" xlink:href="#av"/><use transform="matrix(0.01193576388888889,0,0,0.01193576388888889,22.70182291666667,0)" xlink:href="#ax"/><use transform="matrix(0.01193576388888889,0,0,0.01193576388888889,34.67339409722223,0)" xlink:href="#ao"/><use transform="matrix(0.01193576388888889,0,0,0.01193576388888889,47.08658854166667,0)" xlink:href="#aX"/><use transform="matrix(0.01193576388888889,0,0,0.01193576388888889,51.32378472222223,0)" xlink:href="#ay"/></g><g id="A"><use transform="matrix(0.01193576388888889,0,0,0.01193576388888889,0,0)" xlink:href="#au"/><use transform="matrix(0.01193576388888889,0,0,0.01193576388888889,17.175564236111114,0)" xlink:href="#av"/><use transform="matrix(0.01193576388888889,0,0,0.01193576388888889,30.603298611111114,0)" xlink:href="#aw"/></g><g id="B"><use transform="matrix(0.01193576388888889,0,0,0.01193576388888889,0,0)" xlink:href="#aG"/><use transform="matrix(0.01193576388888889,0,0,0.01193576388888889,12.723524305555557,0)" xlink:href="#ap"/><use transform="matrix(0.01193576388888889,0,0,0.01193576388888889,26.00802951388889,0)" xlink:href="#ap"/></g><path d="M651-670c-28-91-69-228-123-411-28 91-70 228-125 411h248zM849 0L698-503H353C289-288 238-121 201 0H29l407-1357h185L1027 0H849" id="be"/><path d="M812-932c0-173-180-260-368-260H218v524h226c185 4 368-93 368-264zm166 0c0 250-274 437-534 429H218V0H51v-1357h393c258-7 534 177 534 425" id="bf"/><path d="M28-165h167v-1028H28v-164h505v164H362v1028h171V0H28v-165" id="bg"/><g id="C"><use transform="matrix(0.01193576388888889,0,0,0.01193576388888889,0,0)" xlink:href="#be"/><use transform="matrix(0.01193576388888889,0,0,0.01193576388888889,14.08420138888889,0)" xlink:href="#bf"/><use transform="matrix(0.01193576388888889,0,0,0.01193576388888889,27.09418402777778,0)" xlink:href="#bg"/></g><g id="D"><use transform="matrix(0.01193576388888889,0,0,0.01193576388888889,0,0)" xlink:href="#aZ"/><use transform="matrix(0.01193576388888889,0,0,0.01193576388888889,13.451605902777779,0)" xlink:href="#bc"/></g><path d="M413 393C30 316-11-536 113-995c58-214 161-336 300-367v143c-127 54-191 299-191 735 0 435 64 680 191 734v143" id="bh"/><path d="M300 0c-48 0-88-40-88-88s40-87 88-87c46 0 88 41 88 87 0 48-40 88-88 88zm79-416c0 23 2 103 2 124H215c0-33-1-97-1-137 4-234 58-352 200-430 52-29 138-54 138-132 0-132-61-198-182-198-123 0-185 72-185 217H17c-4-218 139-385 353-385 185 0 355 157 355 343 0 91-23 160-70 207-31 32-101 66-192 109-57 27-84 123-84 282" id="bi"/><path d="M35-1360c382 78 425 930 300 1388-59 215-161 336-300 367V252c128-53 192-298 192-735 0-436-64-681-192-734v-143" id="bj"/><g id="E"><use transform="matrix(0.01193576388888889,0,0,0.01193576388888889,0,0)" xlink:href="#bh"/><use transform="matrix(0.01193576388888889,0,0,0.01193576388888889,6.146918402777779,0)" xlink:href="#bi"/><use transform="matrix(0.01193576388888889,0,0,0.01193576388888889,16.02973090277778,0)" xlink:href="#bj"/></g><g id="F"><use transform="matrix(0.01193576388888889,0,0,0.01193576388888889,0,0)" xlink:href="#ar"/><use transform="matrix(0.01193576388888889,0,0,0.01193576388888889,12.651909722222223,0)" xlink:href="#ao"/><use transform="matrix(0.01193576388888889,0,0,0.01193576388888889,25.065104166666668,0)" xlink:href="#aw"/><use transform="matrix(0.01193576388888889,0,0,0.01193576388888889,38.64800347222223,0)" xlink:href="#aX"/><use transform="matrix(0.01193576388888889,0,0,0.01193576388888889,42.885199652777786,0)" xlink:href="#an"/><use transform="matrix(0.01193576388888889,0,0,0.01193576388888889,47.65950520833334,0)" xlink:href="#aH"/></g><g id="G"><use transform="matrix(0.01193576388888889,0,0,0.01193576388888889,0,0)" xlink:href="#aB"/><use transform="matrix(0.01193576388888889,0,0,0.01193576388888889,13.284505208333334,0)" xlink:href="#aG"/><use transform="matrix(0.01193576388888889,0,0,0.01193576388888889,25.435112847222225,0)" xlink:href="#ay"/><use transform="matrix(0.01193576388888889,0,0,0.01193576388888889,32.73980034722223,0)" xlink:href="#aG"/></g><g id="H"><use transform="matrix(0.01193576388888889,0,0,0.01193576388888889,0,0)" xlink:href="#aH"/><use transform="matrix(0.01193576388888889,0,0,0.01193576388888889,12.938368055555557,0)" xlink:href="#al"/><use transform="matrix(0.01193576388888889,0,0,0.01193576388888889,26.366102430555557,0)" xlink:href="#aA"/><use transform="matrix(0.01193576388888889,0,0,0.01193576388888889,39.69835069444444,0)" xlink:href="#ax"/><use transform="matrix(0.01193576388888889,0,0,0.01193576388888889,51.66992187500001,0)" xlink:href="#ao"/><use transform="matrix(0.01193576388888889,0,0,0.01193576388888889,64.08311631944444,0)" xlink:href="#am"/><use transform="matrix(0.01193576388888889,0,0,0.01193576388888889,82.54774305555556,0)" xlink:href="#ap"/><use transform="matrix(0.01193576388888889,0,0,0.01193576388888889,95.83224826388889,0)" xlink:href="#ay"/><use transform="matrix(0.01193576388888889,0,0,0.01193576388888889,103.13693576388887,0)" xlink:href="#an"/><use transform="matrix(0.01193576388888889,0,0,0.01193576388888889,107.91124131944446,0)" xlink:href="#al"/><use transform="matrix(0.01193576388888889,0,0,0.01193576388888889,121.33897569444443,0)" xlink:href="#aA"/></g><path d="M216-1355l315 543 320-543h152L612-684 1006 0H855L531-551 213 0H57l399-684-391-671h151" id="bk"/><g id="I"><use transform="matrix(0.0390625,0,0,0.0390625,0,0)" xlink:href="#aD"/><use transform="matrix(0.0390625,0,0,0.0390625,43.9453125,0)" xlink:href="#aF"/><use transform="matrix(0.0390625,0,0,0.0390625,80,0)" xlink:href="#bk"/><use transform="matrix(0.0390625,0,0,0.0390625,124.1015625,0)" xlink:href="#aU"/><use transform="matrix(0.0390625,0,0,0.0390625,151.796875,0)" xlink:href="#aW"/><use transform="matrix(0.0390625,0,0,0.0390625,170.7421875,0)" xlink:href="#ak"/><use transform="matrix(0.0390625,0,0,0.0390625,201.09375,0)" xlink:href="#aG"/><use transform="matrix(0.0390625,0,0,0.0390625,242.734375,0)" xlink:href="#am"/><use transform="matrix(0.0390625,0,0,0.0390625,303.1640625,0)" xlink:href="#av"/><use transform="matrix(0.0390625,0,0,0.0390625,347.109375,0)" xlink:href="#aB"/><use transform="matrix(0.0390625,0,0,0.0390625,390.5859375,0)" xlink:href="#aG"/><use transform="matrix(0.0390625,0,0,0.0390625,430.3515625,0)" xlink:href="#ay"/><use transform="matrix(0.0390625,0,0,0.0390625,454.2578125,0)" xlink:href="#aG"/></g><g id="J"><use transform="matrix(0.007595486111111112,0,0,0.007595486111111112,0,0)" xlink:href="#aW"/><use transform="matrix(0.007595486111111112,0,0,0.007595486111111112,3.6838107638888893,0)" xlink:href="#ak"/><use transform="matrix(0.007595486111111112,0,0,0.007595486111111112,9.585503472222223,0)" xlink:href="#aG"/><use transform="matrix(0.007595486111111112,0,0,0.007595486111111112,17.682291666666668,0)" xlink:href="#am"/><use transform="matrix(0.007595486111111112,0,0,0.007595486111111112,29.432508680555557,0)" xlink:href="#av"/><use transform="matrix(0.007595486111111112,0,0,0.007595486111111112,37.97743055555556,0)" xlink:href="#aB"/><use transform="matrix(0.007595486111111112,0,0,0.007595486111111112,46.43120659722223,0)" xlink:href="#aG"/><use transform="matrix(0.007595486111111112,0,0,0.007595486111111112,54.163411458333336,0)" xlink:href="#ay"/><use transform="matrix(0.007595486111111112,0,0,0.007595486111111112,58.811848958333336,0)" xlink:href="#aG"/></g><g id="K"><use transform="matrix(0.01193576388888889,0,0,0.01193576388888889,0,0)" xlink:href="#aK"/><use transform="matrix(0.01193576388888889,0,0,0.01193576388888889,13.917100694444446,0)" xlink:href="#ao"/><use transform="matrix(0.01193576388888889,0,0,0.01193576388888889,26.33029513888889,0)" xlink:href="#av"/><use transform="matrix(0.01193576388888889,0,0,0.01193576388888889,39.75802951388889,0)" xlink:href="#aX"/><use transform="matrix(0.01193576388888889,0,0,0.01193576388888889,43.99522569444445,0)" xlink:href="#aX"/><use transform="matrix(0.01193576388888889,0,0,0.01193576388888889,48.23242187500001,0)" xlink:href="#al"/></g><g id="L"><use transform="matrix(0.01193576388888889,0,0,0.01193576388888889,0,0)" xlink:href="#aH"/><use transform="matrix(0.01193576388888889,0,0,0.01193576388888889,12.938368055555557,0)" xlink:href="#aj"/><use transform="matrix(0.01193576388888889,0,0,0.01193576388888889,25.649956597222225,0)" xlink:href="#av"/></g><path d="M178-957l334 813 331-813h142L595 0H424L33-957h145" id="bl"/><g id="M"><use transform="matrix(0.01193576388888889,0,0,0.01193576388888889,0,0)" xlink:href="#aG"/><use transform="matrix(0.01193576388888889,0,0,0.01193576388888889,12.723524305555557,0)" xlink:href="#bl"/><use transform="matrix(0.01193576388888889,0,0,0.01193576388888889,24.671223958333336,0)" xlink:href="#av"/><use transform="matrix(0.01193576388888889,0,0,0.01193576388888889,37.52604166666667,0)" xlink:href="#bl"/><use transform="matrix(0.01193576388888889,0,0,0.01193576388888889,50.42860243055556,0)" xlink:href="#aG"/></g><g id="N"><use transform="matrix(0.01193576388888889,0,0,0.01193576388888889,0,0)" xlink:href="#aH"/><use transform="matrix(0.01193576388888889,0,0,0.01193576388888889,12.938368055555557,0)" xlink:href="#aj"/><use transform="matrix(0.01193576388888889,0,0,0.01193576388888889,25.48285590277778,0)" xlink:href="#an"/><use transform="matrix(0.01193576388888889,0,0,0.01193576388888889,30.257161458333336,0)" xlink:href="#av"/><use transform="matrix(0.01193576388888889,0,0,0.01193576388888889,43.684895833333336,0)" xlink:href="#ax"/><use transform="matrix(0.01193576388888889,0,0,0.01193576388888889,55.65646701388889,0)" xlink:href="#ay"/><use transform="matrix(0.01193576388888889,0,0,0.01193576388888889,62.96115451388889,0)" xlink:href="#al"/></g><path d="M204-656l437-331 87 99-330 254L782 0H626L289-554l-85 65V0H72v-1355h132v699" id="bm"/><g id="O"><use transform="matrix(0.01193576388888889,0,0,0.01193576388888889,0,0)" xlink:href="#ak"/><use transform="matrix(0.01193576388888889,0,0,0.01193576388888889,10.228949652777779,0)" xlink:href="#an"/><use transform="matrix(0.01193576388888889,0,0,0.01193576388888889,15.003255208333334,0)" xlink:href="#aH"/><use transform="matrix(0.01193576388888889,0,0,0.01193576388888889,27.941623263888893,0)" xlink:href="#bm"/><use transform="matrix(0.01193576388888889,0,0,0.01193576388888889,38.015407986111114,0)" xlink:href="#an"/></g><path d="M177-478c0 192 146 370 333 370s324-179 324-370c0-193-136-371-324-371-187 0-333 180-333 371zm332 742c191 3 334-157 330-347v-91C756-43 647 22 510 22 246 22 47-209 47-478c0-259 208-501 463-501 140 0 250 67 329 201v-179h130v888c6 260-201 463-461 463C272 394 95 221 61 14L188-7c30 151 149 268 321 271" id="bn"/><g id="P"><use transform="matrix(0.01193576388888889,0,0,0.01193576388888889,0,0)" xlink:href="#ak"/><use transform="matrix(0.01193576388888889,0,0,0.01193576388888889,9.274088541666668,0)" xlink:href="#av"/><use transform="matrix(0.01193576388888889,0,0,0.01193576388888889,22.70182291666667,0)" xlink:href="#bn"/><use transform="matrix(0.01193576388888889,0,0,0.01193576388888889,35.83116319444445,0)" xlink:href="#av"/><use transform="matrix(0.01193576388888889,0,0,0.01193576388888889,49.25889756944445,0)" xlink:href="#aT"/></g><g id="Q"><use transform="matrix(0.01193576388888889,0,0,0.01193576388888889,0,0)" xlink:href="#am"/><use transform="matrix(0.01193576388888889,0,0,0.01193576388888889,18.464626736111114,0)" xlink:href="#aG"/><use transform="matrix(0.01193576388888889,0,0,0.01193576388888889,30.615234375000004,0)" xlink:href="#ay"/><use transform="matrix(0.01193576388888889,0,0,0.01193576388888889,37.91992187500001,0)" xlink:href="#aH"/><use transform="matrix(0.01193576388888889,0,0,0.01193576388888889,50.85828993055556,0)" xlink:href="#aj"/><use transform="matrix(0.01193576388888889,0,0,0.01193576388888889,63.56987847222223,0)" xlink:href="#av"/><use transform="matrix(0.01193576388888889,0,0,0.01193576388888889,76.99761284722223,0)" xlink:href="#ak"/></g><g id="R"><use transform="matrix(0.01193576388888889,0,0,0.01193576388888889,0,0)" xlink:href="#aA"/><use transform="matrix(0.01193576388888889,0,0,0.01193576388888889,13.33224826388889,0)" xlink:href="#aG"/><use transform="matrix(0.01193576388888889,0,0,0.01193576388888889,26.055772569444446,0)" xlink:href="#am"/><use transform="matrix(0.01193576388888889,0,0,0.01193576388888889,44.52039930555556,0)" xlink:href="#av"/></g><g id="S"><use transform="matrix(0.01193576388888889,0,0,0.01193576388888889,0,0)" xlink:href="#aw"/><use transform="matrix(0.01193576388888889,0,0,0.01193576388888889,13.582899305555557,0)" xlink:href="#ao"/><use transform="matrix(0.01193576388888889,0,0,0.01193576388888889,25.996093750000004,0)" xlink:href="#an"/><use transform="matrix(0.01193576388888889,0,0,0.01193576388888889,30.770399305555557,0)" xlink:href="#aX"/><use transform="matrix(0.01193576388888889,0,0,0.01193576388888889,35.007595486111114,0)" xlink:href="#aB"/><use transform="matrix(0.01193576388888889,0,0,0.01193576388888889,48.29210069444445,0)" xlink:href="#av"/><use transform="matrix(0.01193576388888889,0,0,0.01193576388888889,61.71983506944445,0)" xlink:href="#ak"/></g><g id="T"><use transform="matrix(0.01193576388888889,0,0,0.01193576388888889,0,0)" xlink:href="#aC"/><use transform="matrix(0.01193576388888889,0,0,0.01193576388888889,11.39865451388889,0)" xlink:href="#aD"/><use transform="matrix(0.01193576388888889,0,0,0.01193576388888889,24.82638888888889,0)" xlink:href="#as"/><use transform="matrix(0.01193576388888889,0,0,0.01193576388888889,38.337673611111114,0)" xlink:href="#aE"/></g><g id="U"><use transform="matrix(0.01193576388888889,0,0,0.01193576388888889,0,0)" xlink:href="#aD"/><use transform="matrix(0.01193576388888889,0,0,0.01193576388888889,13.427734375000002,0)" xlink:href="#aH"/><use transform="matrix(0.01193576388888889,0,0,0.01193576388888889,26.366102430555557,0)" xlink:href="#aj"/><use transform="matrix(0.01193576388888889,0,0,0.01193576388888889,39.07769097222222,0)" xlink:href="#av"/><use transform="matrix(0.01193576388888889,0,0,0.01193576388888889,52.50542534722223,0)" xlink:href="#am"/><use transform="matrix(0.01193576388888889,0,0,0.01193576388888889,70.97005208333334,0)" xlink:href="#aG"/></g><path d="M698-616c0-135-113-233-251-233-70 0-129 20-177 60h-4l-109-75c79-77 175-115 289-115 214 0 384 152 384 363 0 119-80 231-181 250C799-318 912-188 916 0c4 226-207 387-438 387S33 226 40 0h132c0 56 22 112 65 170s124 87 241 87c163 0 308-108 308-264 0-184-169-294-362-290v-127c144 1 274-60 274-192" id="bo"/><g id="V"><use transform="matrix(0.01193576388888889,0,0,0.01193576388888889,0,0)" xlink:href="#as"/><use transform="matrix(0.01193576388888889,0,0,0.01193576388888889,12.747395833333334,0)" xlink:href="#aq"/><use transform="matrix(0.01193576388888889,0,0,0.01193576388888889,26.473524305555557,0)" xlink:href="#bo"/></g><g id="W"><use transform="matrix(0.01193576388888889,0,0,0.01193576388888889,0,0)" xlink:href="#aD"/><use transform="matrix(0.01193576388888889,0,0,0.01193576388888889,13.427734375000002,0)" xlink:href="#aH"/><use transform="matrix(0.01193576388888889,0,0,0.01193576388888889,26.366102430555557,0)" xlink:href="#aj"/><use transform="matrix(0.01193576388888889,0,0,0.01193576388888889,39.07769097222222,0)" xlink:href="#av"/><use transform="matrix(0.01193576388888889,0,0,0.01193576388888889,52.50542534722223,0)" xlink:href="#am"/><use transform="matrix(0.01193576388888889,0,0,0.01193576388888889,70.97005208333334,0)" xlink:href="#aG"/></g><path d="M32-990c0-232 243-390 485-390 230 0 384 80 460 242 25 53 37 112 37 177H848c0-169-110-254-331-254-175 0-321 66-320 224 0 68 25 124 82 157 72 43 313 83 425 114 184 50 303 136 310 344 8 234-251 397-495 397C251 21 32-142 31-398h166c5 169 112 254 321 254 161 0 330-78 330-223 0-98-70-169-211-207-131-36-266-59-393-103C99-727 32-841 32-990" id="bp"/><path d="M470-144c172 0 264-158 264-340v-486h165V0H734v-96C656-18 568 21 470 21 202 21 46-186 46-463v-507h165v507c-4 167 99 319 259 319" id="bq"/><path d="M223-484c0 174 142 340 313 340 169 0 319-168 319-340 0-174-147-342-319-342-173 0-313 166-313 342zm798 0c0 261-225 505-485 505-129 0-235-50-318-149v516H53V-970h165v128c83-99 189-149 318-149 260 0 485 246 485 507" id="br"/><g id="X"><use transform="matrix(0.01193576388888889,0,0,0.01193576388888889,0,0)" xlink:href="#bp"/><use transform="matrix(0.01193576388888889,0,0,0.01193576388888889,13.785807291666668,0)" xlink:href="#ae"/><use transform="matrix(0.01193576388888889,0,0,0.01193576388888889,27.571614583333336,0)" xlink:href="#bq"/><use transform="matrix(0.01193576388888889,0,0,0.01193576388888889,40.34288194444445,0)" xlink:href="#br"/></g><g id="Y"><use transform="matrix(0.01193576388888889,0,0,0.01193576388888889,0,0)" xlink:href="#aQ"/><use transform="matrix(0.01193576388888889,0,0,0.01193576388888889,12.329644097222223,0)" xlink:href="#ba"/><use transform="matrix(0.01193576388888889,0,0,0.01193576388888889,24.83832465277778,0)" xlink:href="#aP"/><use transform="matrix(0.01193576388888889,0,0,0.01193576388888889,34.470486111111114,0)" xlink:href="#ag"/><use transform="matrix(0.01193576388888889,0,0,0.01193576388888889,47.552083333333336,0)" xlink:href="#br"/><use transform="matrix(0.01193576388888889,0,0,0.01193576388888889,61.194661458333336,0)" xlink:href="#aN"/><use transform="matrix(0.01193576388888889,0,0,0.01193576388888889,74.98046875,0)" xlink:href="#aP"/></g><g id="Z"><use transform="matrix(0.01193576388888889,0,0,0.01193576388888889,0,0)" xlink:href="#aj"/><use transform="matrix(0.01193576388888889,0,0,0.01193576388888889,12.544487847222223,0)" xlink:href="#al"/><use transform="matrix(0.01193576388888889,0,0,0.01193576388888889,25.972222222222225,0)" xlink:href="#aX"/><use transform="matrix(0.01193576388888889,0,0,0.01193576388888889,30.20941840277778,0)" xlink:href="#aL"/><use transform="matrix(0.01193576388888889,0,0,0.01193576388888889,43.386501736111114,0)" xlink:href="#ak"/><use transform="matrix(0.01193576388888889,0,0,0.01193576388888889,52.66059027777778,0)" xlink:href="#av"/><use transform="matrix(0.01193576388888889,0,0,0.01193576388888889,66.08832465277779,0)" xlink:href="#bn"/><use transform="matrix(0.01193576388888889,0,0,0.01193576388888889,79.21766493055557,0)" xlink:href="#av"/><use transform="matrix(0.01193576388888889,0,0,0.01193576388888889,92.64539930555557,0)" xlink:href="#aT"/></g><g id="aa"><use transform="matrix(0.01193576388888889,0,0,0.01193576388888889,0,0)" xlink:href="#av"/><use transform="matrix(0.01193576388888889,0,0,0.01193576388888889,13.427734375000002,0)" xlink:href="#aT"/><use transform="matrix(0.01193576388888889,0,0,0.01193576388888889,25.888671875000004,0)" xlink:href="#aG"/><use transform="matrix(0.01193576388888889,0,0,0.01193576388888889,38.61219618055556,0)" xlink:href="#aH"/><use transform="matrix(0.01193576388888889,0,0,0.01193576388888889,51.550564236111114,0)" xlink:href="#ay"/></g><g id="ab"><use transform="matrix(0.01193576388888889,0,0,0.01193576388888889,0,0)" xlink:href="#am"/><use transform="matrix(0.01193576388888889,0,0,0.01193576388888889,18.464626736111114,0)" xlink:href="#aG"/><use transform="matrix(0.01193576388888889,0,0,0.01193576388888889,30.615234375000004,0)" xlink:href="#ay"/><use transform="matrix(0.01193576388888889,0,0,0.01193576388888889,37.91992187500001,0)" xlink:href="#aH"/><use transform="matrix(0.01193576388888889,0,0,0.01193576388888889,50.85828993055556,0)" xlink:href="#aj"/><use transform="matrix(0.01193576388888889,0,0,0.01193576388888889,63.56987847222223,0)" xlink:href="#av"/><use transform="matrix(0.01193576388888889,0,0,0.01193576388888889,76.99761284722223,0)" xlink:href="#ak"/></g></defs></g></svg>